<svg xmlns="http://www.w3.org/2000/svg" width="26.22" height="29.445" viewBox="0 0 26.22 29.445"><path d="M52.116,2.145a7.343,7.343,0,0,0-10.373,0L30.821,13.067a.863.863,0,0,0,1.22,1.22L42.963,3.365a5.745,5.745,0,0,1,7.933,0,5.615,5.615,0,0,1,0,7.932L35.645,26.72a3.534,3.534,0,0,1-4.882,0,3.455,3.455,0,0,1,0-4.881L45.4,7.026a1.326,1.326,0,0,1,1.83,0,1.3,1.3,0,0,1,0,1.831l-14.03,14.2a.962.962,0,0,0,0,1.22.863.863,0,0,0,1.22,0l14.03-14.2a3.023,3.023,0,0,0,0-4.271,3.094,3.094,0,0,0-4.271,0L29.544,20.619a5.211,5.211,0,0,0,0,7.321,5.2,5.2,0,0,0,7.322,0L52.116,12.517A7.342,7.342,0,0,0,52.116,2.145Z" transform="translate(-28.041 0)" fill="#fbba00"/></svg>