<svg xmlns="http://www.w3.org/2000/svg" width="27.729" height="35" viewBox="0 0 27.729 35"><g transform="translate(-0.5)"><path d="M19.361.271A.847.847,0,0,0,18.753,0H5.1A4.618,4.618,0,0,0,.5,4.59V30.409A4.619,4.619,0,0,0,5.1,35H23.63a4.619,4.619,0,0,0,4.6-4.591V9.908a.91.91,0,0,0-.245-.592Zm.245,2.714L25.38,9.046H21.627a2.013,2.013,0,0,1-2.021-2.012ZM23.63,33.309H5.1a2.928,2.928,0,0,1-2.908-2.9V4.59A2.928,2.928,0,0,1,5.1,1.691H17.915V7.034a3.7,3.7,0,0,0,3.711,3.7h4.912V30.409A2.923,2.923,0,0,1,23.63,33.309Zm0,0" fill="#ebae00"/><path d="M103.529,401.934H89.994a.877.877,0,0,0,0,1.75h13.543a.877.877,0,0,0-.008-1.75Zm0,0" transform="translate(-82.397 -374.507)" fill="#ebae00"/><path d="M123.982,183.548a.869.869,0,0,0,1.278,0l5.129-5.505a.873.873,0,1,0-1.278-1.19l-3.615,3.877v-9.557a.875.875,0,0,0-1.75,0v9.557l-3.606-3.877a.873.873,0,0,0-1.278,1.19Zm0,0" transform="translate(-110.257 -158.9)" fill="#ebae00"/></g></svg>