<svg xmlns="http://www.w3.org/2000/svg" width="26.994" height="26.995" viewBox="0 0 26.994 26.995"><path d="M13.763,27h-.269c-2.116.005-4.071-.049-5.972-.164a7.984,7.984,0,0,1-4.6-1.742A7.387,7.387,0,0,1,.438,21.082a17.757,17.757,0,0,1-.407-4.24C.017,15.856,0,14.689,0,13.5s.017-2.36.03-3.346a17.759,17.759,0,0,1,.407-4.24A7.387,7.387,0,0,1,2.92,1.908,7.984,7.984,0,0,1,7.522.166C9.424.05,11.379,0,13.5,0s4.071.049,5.972.164a7.984,7.984,0,0,1,4.6,1.742,7.386,7.386,0,0,1,2.482,4.007,17.758,17.758,0,0,1,.407,4.24c.014.985.028,2.153.03,3.341v0c0,1.188-.017,2.355-.03,3.341a17.749,17.749,0,0,1-.407,4.24,7.386,7.386,0,0,1-2.482,4.007,7.984,7.984,0,0,1-4.6,1.742c-1.821.111-3.691.165-5.709.165Zm-.269-2.109c2.082,0,3.993-.048,5.849-.16a5.809,5.809,0,0,0,3.4-1.271,5.324,5.324,0,0,0,1.771-2.894,16.155,16.155,0,0,0,.342-3.748c.013-.979.027-2.138.03-3.314s-.017-2.336-.03-3.314a16.158,16.158,0,0,0-.342-3.748,5.324,5.324,0,0,0-1.771-2.894,5.811,5.811,0,0,0-3.4-1.271c-1.857-.113-3.768-.165-5.845-.161s-3.993.048-5.849.161a5.811,5.811,0,0,0-3.4,1.271A5.324,5.324,0,0,0,2.482,6.436a16.157,16.157,0,0,0-.342,3.748c-.013.98-.027,2.14-.03,3.317s.017,2.332.03,3.312a16.155,16.155,0,0,0,.342,3.748,5.324,5.324,0,0,0,1.771,2.894,5.811,5.811,0,0,0,3.4,1.271C9.507,24.839,11.419,24.892,13.495,24.887Zm-.05-4.8A6.591,6.591,0,1,1,20.035,13.5,6.6,6.6,0,0,1,13.444,20.089Zm0-11.072A4.482,4.482,0,1,0,17.926,13.5,4.487,4.487,0,0,0,13.444,9.017ZM20.773,4.8a1.582,1.582,0,1,0,1.582,1.582A1.582,1.582,0,0,0,20.773,4.8Zm0,0" transform="translate(0 -0.001)" fill="#fff"/></svg>