<svg xmlns="http://www.w3.org/2000/svg" xmlns:xlink="http://www.w3.org/1999/xlink" width="139.414" height="36.541" viewBox="0 0 139.414 36.541"><defs><clipPath id="a"><rect width="139.414" height="36.541" fill="none"/></clipPath></defs><g clip-path="url(#a)"><path d="M43.7,21.585V0h8.911q5.822,0,5.822,5.188,0,4.476-6.337,6.337l7.288,10.06H57.206l-7.169-10.02V10.5q6.654-.99,6.654-5.228T52.334,1.386h-7.05v20.2Z" transform="translate(-26.392)" fill="#fff"/><path d="M85.794,20.674V19.051a21.9,21.9,0,0,0,7.367,1.188q6.693,0,6.693-5.07,0-3.723-4.357-3.723H91.141Q85.2,11.446,85.2,6.1,85.2,0,93.913,0a26.734,26.734,0,0,1,6.931.911V2.376a23.17,23.17,0,0,0-6.931-1.03q-7.129,0-7.129,4.753,0,3.881,4.4,3.881h4.4q5.9,0,5.9,5.228,0,6.416-8.238,6.416a28.6,28.6,0,0,1-7.367-.911" transform="translate(-51.455 0)" fill="#fff"/><path d="M243.989,0,234.8,21.585h4.119l7.129-17.466,3.367,8.119H245.1l-1.386,3.446h7.169l2.456,5.9h4.317L248.266,0Z" transform="translate(-141.804)" fill="#fff"/><path d="M301.1,21.585h4V0h-4ZM315.4,0l-8.04,8.911v2.574l8.357,10.1h5.545L311.081,10.06,320.269,0Z" transform="translate(-181.846)" fill="#fff"/><path d="M166.252,0l-6.693,16.516L152.865,0H127.2V1.347h7.208V21.585h1.584V1.347h12.674l3.683,8.793h-8.911v1.347h9.505l3.683,8.753H143.439v1.347H161.5L170.965,0Z" transform="translate(-76.821)" fill="#fff"/><path d="M5.109,72.5v5.664H4.317v-4.99H.753v4.99H0V72.5Z" transform="translate(0 -43.785)" fill="#fff"/><path d="M24.143,75.288a2.733,2.733,0,0,1-2.812,2.891,2.5,2.5,0,0,1-2.178-1.109v3.169H18.4v-7.8h.753v1.109A2.456,2.456,0,0,1,21.331,72.4a2.733,2.733,0,0,1,2.812,2.891m-.753,0a2.1,2.1,0,1,0-.571,1.562,2.1,2.1,0,0,0,.571-1.562" transform="translate(-11.112 -43.722)" fill="#fff"/><path d="M41.2,75.528H36.445a2.1,2.1,0,0,0,2.218,1.98,2.258,2.258,0,0,0,1.743-.753l.436.515a3,3,0,0,1-5.149-1.98,2.775,2.775,0,1,1,5.545,0v.238m-4.753-.554h4a2.02,2.02,0,1,0-4.04,0" transform="translate(-21.554 -43.725)" fill="#fff"/><path d="M53.9,72.5h.792v4.515L58.455,72.5h.673v5.664h-.753V73.649l-3.763,4.515H53.9Z" transform="translate(-32.552 -43.785)" fill="#fff"/><path d="M79.037,72.5v5.664h-.713V73.688l-2.3,3.8H75.67l-2.3-3.8v4.476H72.7V72.5h.753l2.416,4.079L78.324,72.5Z" transform="translate(-43.906 -43.785)" fill="#fff"/><path d="M97.1,72.5l-2.852,6.377c-.475,1.109-1.069,1.465-1.9,1.465A1.941,1.941,0,0,1,91,79.827l.356-.554a1.426,1.426,0,0,0,1.03.436c.515,0,.871-.238,1.188-.951l.238-.554-2.535-5.7h.792l2.139,4.832L96.347,72.5Z" transform="translate(-54.958 -43.785)" fill="#fff"/><path d="M118.113,77.49v1.941H117.4V78.164h-8V72.5h.792v4.99h2.772V72.5h.753v4.99h2.772V72.5h.753v4.99Z" transform="translate(-66.071 -43.785)" fill="#fff"/><path d="M138.9,75.528h-4.753a2.1,2.1,0,0,0,2.218,1.98,2.258,2.258,0,0,0,1.743-.753l.436.515a3,3,0,0,1-5.149-1.98,2.775,2.775,0,1,1,5.545,0v.238m-4.753-.554h4.04a2.02,2.02,0,1,0-4.04,0" transform="translate(-80.558 -43.725)" fill="#fff"/><path d="M150.2,75.285a2.812,2.812,0,0,1,2.931-2.891,2.5,2.5,0,0,1,2.218,1.109l-.554.4a1.941,1.941,0,0,0-1.663-.832,2.218,2.218,0,0,0,0,4.436,1.9,1.9,0,0,0,1.663-.832l.554.4a2.5,2.5,0,0,1-2.218,1.109,2.812,2.812,0,0,1-2.931-2.891" transform="translate(-90.71 -43.719)" fill="#fff"/><path d="M169.03,73.173h-2.139v4.99h-.753v-4.99H164V72.5h5.03Z" transform="translate(-99.046 -43.785)" fill="#fff"/><path d="M184.353,76.619c0,.99-.713,1.545-2.178,1.545H179.6V72.5h2.5c1.267,0,2.06.515,2.06,1.465a1.307,1.307,0,0,1-.951,1.267,1.307,1.307,0,0,1,1.149,1.386M180.313,75h1.7c.871,0,1.347-.317,1.347-.99s-.475-.951-1.347-.951h-1.7Zm3.287,1.584c0-.673-.436-.99-1.386-.99h-1.861v1.98h1.782c.951,0,1.465-.317,1.465-.99" transform="translate(-108.467 -43.785)" fill="#fff"/><path d="M194.7,75.291a2.891,2.891,0,1,1,2.891,2.891,2.812,2.812,0,0,1-2.891-2.891m4.99,0a2.1,2.1,0,1,0-2.1,2.218,2.06,2.06,0,0,0,2.1-2.218" transform="translate(-117.585 -43.725)" fill="#fff"/><path d="M225.353,76.619c0,.99-.713,1.545-2.178,1.545H220.6V72.5h2.5c1.267,0,2.06.515,2.06,1.465a1.307,1.307,0,0,1-.951,1.267,1.307,1.307,0,0,1,1.149,1.386M221.313,75h1.7c.871,0,1.347-.317,1.347-.99s-.436-.911-1.307-.911h-1.7Zm3.287,1.584c0-.673-.436-.99-1.386-.99h-1.861v1.98h1.782c.951,0,1.465-.317,1.465-.99" transform="translate(-133.229 -43.785)" fill="#fff"/><path d="M248.335,77.49v2.06h-.713V78.164h-5.109V79.55H241.8V77.49h.317c.832-.04.99-1.584,1.069-3.089l.079-1.9h4.2v4.99Zm-5.188,0h3.525V73.173h-2.733l-.079,1.267c-.04,1.307-.158,2.654-.753,3.05" transform="translate(-146.032 -43.785)" fill="#fff"/><path d="M266.2,75.528h-4.753a2.1,2.1,0,0,0,2.218,1.98,2.258,2.258,0,0,0,1.743-.753l.436.515a3,3,0,0,1-5.149-1.98,2.775,2.775,0,1,1,5.545,0v.238m-4.753-.554h4.04a2.02,2.02,0,1,0-4.04,0" transform="translate(-157.439 -43.725)" fill="#fff"/><path d="M280.67,73.173h-2.178v4.99h-.753v-4.99H275.6V72.5h5.07Z" transform="translate(-166.445 -43.785)" fill="#fff"/><path d="M294.653,74.616v3.525H293.9V77.23a2.136,2.136,0,0,1-1.941.951c-.911,0-2.06-.673-2.06-1.663s.554-1.624,2.178-1.624H293.9v-.356c0-.99-.554-1.505-1.624-1.505a2.891,2.891,0,0,0-1.9.673l-.356-.554a3.6,3.6,0,0,1,2.3-.753,2.029,2.029,0,0,1,2.3,2.218M293.9,76.4v-.911h-1.782c-1.109,0-1.465.436-1.465,1.03s.515,1.069,1.426,1.069a1.822,1.822,0,0,0,1.822-1.149" transform="translate(-175.081 -43.723)" fill="#fff"/><path d="M310.1,72.44V78.1h-.753v-4.99h-2.733l-.079,1.386c-.079,1.98-.356,3.683-1.584,3.683L304.4,78.1V77.43h.277c.951,0,1.03-1.505,1.109-3.01l.079-2.02Z" transform="translate(-183.839 -43.725)" fill="#fff"/><path d="M327.932,72.5v5.664h-.713V76.3h-1.98l-1.307,1.861H323.1l1.426-1.98a1.7,1.7,0,0,1-1.386-1.743c0-1.307.951-1.941,2.416-1.941Zm-2.416,3.208h1.7V73.173h-1.663c-1.069,0-1.663.4-1.663,1.267s.555,1.267,1.624,1.267" transform="translate(-195.132 -43.785)" fill="#fff"/><path d="M342.976,78.164l-1.822-2.376-1.822,2.376H338.5l2.218-2.891L338.579,72.5h.871l1.7,2.218,1.7-2.218h.871l-2.139,2.772,2.258,2.891Z" transform="translate(-204.433 -43.785)" fill="#fff"/></g></svg>