<svg xmlns="http://www.w3.org/2000/svg" xmlns:xlink="http://www.w3.org/1999/xlink" width="222.673" height="46.528" viewBox="0 0 222.673 46.528"><defs><clipPath id="a"><rect width="222.673" height="46.528" fill="rgba(0,0,0,0)"/></clipPath><clipPath id="b"><rect width="28.529" height="28.65" fill="rgba(0,0,0,0)"/></clipPath></defs><path d="M72.6,0V28.581H91.637V26.8H74.7V15h16V13.216h-16V1.783H91.375V0Z" transform="translate(-34.526)" fill="#303030"/><g clip-path="url(#a)"><path d="M116.3,28.581V0h11.8q7.762,0,7.762,6.87,0,5.926-8.391,8.391l9.65,13.321h-2.884l-9.545-13.268V13.9q8.81-1.311,8.81-6.922t-5.769-5.139H118.4V28.581Z" transform="translate(-55.309)" fill="#303030"/><path d="M158.587,27.375v-2.15a29.053,29.053,0,0,0,9.754,1.573q8.863,0,8.863-6.713,0-4.93-5.769-4.93h-5.769q-7.866,0-7.866-7.08Q157.8,0,169.337,0a35.4,35.4,0,0,1,9.178,1.206v1.94a30.679,30.679,0,0,0-9.178-1.364q-9.44,0-9.44,6.293,0,5.139,5.821,5.139h5.821q7.814,0,7.814,6.922,0,8.5-10.908,8.5a37.864,37.864,0,0,1-9.754-1.206" transform="translate(-75.045 0)" fill="#303030"/><path d="M319.614,0,307.5,28.581h5.4l9.44-23.127,4.51,10.751h-5.769l-1.836,4.563h9.492l3.251,7.814h5.716L325.331,0Z" transform="translate(-146.237)" fill="#303030"/><path d="M373.7,28.581H379V0h-5.3ZM392.632,0,381.986,11.8v3.409l11.065,13.373h7.342L386.916,13.321,399.135,0Z" transform="translate(-177.72)" fill="#303030"/><path d="M251.509,0l-8.863,21.869L233.783,0H199.8V1.783h9.6v26.8h2.1V1.783h16.729l4.93,11.642H221.3v1.783h12.586l4.877,11.59H221.3v1.783h23.914L257.75,0Z" transform="translate(-95.019)" fill="#303030"/><path d="M296.8,68.533a.787.787,0,0,1,1.573,0,.787.787,0,0,1-1.521,0m.21,2.412h1.049v7.762h-1.049Z" transform="translate(-141.149 -32.242)" fill="#303030"/><path d="M311.832,77.045V81.5h-1.049V77.15a2.148,2.148,0,0,0-2.307-2.465,2.658,2.658,0,0,0-2.727,2.779V81.5H304.7V73.846h1v1.416a3.251,3.251,0,0,1,2.937-1.468c1.888,0,3.147,1.1,3.147,3.3" transform="translate(-144.906 -35.091)" fill="#303030"/><path d="M330.019,67.8V78.708h-1V77.187a3.356,3.356,0,0,1-2.989,1.626,3.933,3.933,0,0,1,0-7.866,3.356,3.356,0,0,1,2.937,1.521V67.8Zm-1.049,7.027a2.884,2.884,0,1,0-2.884,2.989,2.832,2.832,0,0,0,2.884-2.989" transform="translate(-153.181 -32.244)" fill="#303030"/><path d="M349.727,73.9v7.709h-1V80.193a3.094,3.094,0,0,1-2.779,1.468,2.97,2.97,0,0,1-3.252-3.3V73.9h1.049v4.353a2.148,2.148,0,0,0,2.307,2.465,2.577,2.577,0,0,0,2.622-2.779V73.9Z" transform="translate(-162.977 -35.145)" fill="#303030"/><path d="M359.552,80.67l.472-.839a4.667,4.667,0,0,0,2.727.892c1.468,0,2.045-.524,2.045-1.259,0-1.993-4.982-.42-4.982-3.461,0-1.259,1.1-2.2,3.042-2.2a5.244,5.244,0,0,1,2.727.734l-.472.839a3.933,3.933,0,0,0-2.255-.682c-1.416,0-1.993.524-1.993,1.259,0,2.1,4.982.524,4.982,3.461,0,1.311-1.154,2.2-3.2,2.2a5.139,5.139,0,0,1-3.147-.944" transform="translate(-170.967 -35.097)" fill="#303030"/><path d="M378.3,79.568a2.465,2.465,0,0,1-1.626.524,2.045,2.045,0,0,1-2.255-2.255V73.17H373v-.839h1.364V70.6h1.049v1.678h2.36v.892h-2.36v4.615a1.259,1.259,0,0,0,1.311,1.416,1.731,1.731,0,0,0,1.154-.42Z" transform="translate(-177.387 -33.575)" fill="#303030"/><path d="M390.533,73.7v1h-.262a2.514,2.514,0,0,0-2.622,2.832v3.933H386.6V73.8h1v1.521a2.867,2.867,0,0,1,2.884-1.573" transform="translate(-183.855 -35.049)" fill="#303030"/><path d="M397.2,68.532a.787.787,0,0,1,1.573,0,.787.787,0,0,1-1.521,0m.21,2.412h1.049v7.762h-1.049Z" transform="translate(-188.896 -32.242)" fill="#303030"/><path d="M410.451,76.693v4.772h-1V80.259a2.9,2.9,0,0,1-2.675,1.259c-1.311,0-2.779-.892-2.779-2.255s.787-2.2,2.989-2.2h2.465v-.472c0-1.311-.734-2.045-2.2-2.045a3.933,3.933,0,0,0-2.57.892l-.472-.787a4.93,4.93,0,0,1,3.147-1.049c1.993,0,3.147,1,3.147,2.989m-1.049,2.465V77.847h-2.412c-1.521,0-1.993.577-1.993,1.364s.734,1.468,1.94,1.468a2.465,2.465,0,0,0,2.465-1.573" transform="translate(-192.13 -35.001)" fill="#303030"/><rect width="1.049" height="10.898" transform="translate(221.153 35.556)" fill="#303030"/><path d="M.5,29.4V41.2L12.3,29.4Z" transform="translate(-0.238 -13.982)" fill="#303030"/></g><g clip-path="url(#b)"><path d="M1.024,4.359,11.041,14.428H1.024ZM.5,3.1V14.952H12.3Z" transform="translate(-0.238 -1.474)" fill="#303030"/></g><g clip-path="url(#a)"><path d="M31.9,15H43.7V3.2Z" transform="translate(-15.171 -1.522)" fill="#303030"/><path d="M31.9,29.3,43.7,41.152V29.3Z" transform="translate(-15.171 -13.934)" fill="#303030"/><path d="M29.2,43.7H41.1L29.2,31.8Z" transform="translate(-13.887 -15.123)" fill="#303030"/><path d="M3,43.9H14.852V32.1Z" transform="translate(-1.427 -15.266)" fill="#303030"/><path d="M14.375,1.024V11.041L4.359,1.024ZM14.9.5H3.1L14.9,12.3Z" transform="translate(-1.474 -0.238)" fill="#303030"/><path d="M29.2.6V12.452L41.052.6Z" transform="translate(-13.887 -0.285)" fill="#303030"/></g></svg>