<svg xmlns="http://www.w3.org/2000/svg" width="25.158" height="17.236" viewBox="0 0 25.158 17.236"><path d="M22.947,80.609H2.211A2.214,2.214,0,0,0,0,82.82V95.634a2.214,2.214,0,0,0,2.211,2.211H22.947a2.214,2.214,0,0,0,2.211-2.211V82.82A2.214,2.214,0,0,0,22.947,80.609Zm-.289,1.474-.3.246-8.907,7.417a1.371,1.371,0,0,1-1.755,0L2.795,82.329l-.3-.246ZM1.474,83.147,8.731,89.19,1.474,94.02ZM22.947,96.371H2.211a.738.738,0,0,1-.722-.59l8.424-5.607.845.7a2.845,2.845,0,0,0,3.641,0l.845-.7,8.424,5.607A.738.738,0,0,1,22.947,96.371Zm.737-2.351-7.257-4.83,7.257-6.043Z" transform="translate(0 -80.609)" fill="#fff"/></svg>