<svg xmlns="http://www.w3.org/2000/svg" width="13.774" height="18.29" viewBox="0 0 13.774 18.29"><g transform="translate(0.5 0.5)"><path d="M54.467,0A6.394,6.394,0,0,0,48.08,6.387a7.369,7.369,0,0,0,.542,2.459,10.3,10.3,0,0,0,.738,1.381l4.379,6.635a.833.833,0,0,0,1.455,0l4.38-6.636a10.256,10.256,0,0,0,.738-1.381,7.367,7.367,0,0,0,.541-2.459A6.394,6.394,0,0,0,54.467,0ZM59.62,8.554a9.438,9.438,0,0,1-.673,1.259l-4.38,6.636c-.086.131-.114.131-.2,0l-4.38-6.636a9.441,9.441,0,0,1-.673-1.259,6.689,6.689,0,0,1-.483-2.167,5.636,5.636,0,0,1,11.271,0A6.694,6.694,0,0,1,59.62,8.554Z" transform="translate(-48.08)" fill="#fff" stroke="#fff" stroke-width="1"/><path d="M115.461,64.008a3.381,3.381,0,1,0,3.381,3.381A3.385,3.385,0,0,0,115.461,64.008Zm0,6.011a2.63,2.63,0,1,1,2.63-2.63A2.633,2.633,0,0,1,115.461,70.019Z" transform="translate(-109.074 -61.002)" fill="#fff" stroke="#fff" stroke-width="1"/></g></svg>