<svg xmlns="http://www.w3.org/2000/svg" width="25.929" height="18.737" viewBox="0 0 25.929 18.737"><path d="M12.962,19.237h-.007c-.782-.005-7.7-.068-9.659-.6a4.007,4.007,0,0,1-2.82-2.818A29.41,29.41,0,0,1,0,9.894,29.964,29.964,0,0,1,.475,3.921l0-.006A4.092,4.092,0,0,1,3.293,1.079l.01,0C5.24.567,12.171.5,12.955.5h.014c.784.005,7.719.068,9.661.6a4.007,4.007,0,0,1,2.816,2.814,28.532,28.532,0,0,1,.477,6,29.491,29.491,0,0,1-.475,5.919v.006a4.008,4.008,0,0,1-2.821,2.818l-.006,0c-1.937.509-8.868.571-9.651.577h-.007ZM2.433,4.441A28.976,28.976,0,0,0,2.026,9.88v.027A27.228,27.228,0,0,0,2.433,15.3a1.975,1.975,0,0,0,1.39,1.386c1.446.391,7.079.514,9.138.529A70.548,70.548,0,0,0,22.1,16.7a1.976,1.976,0,0,0,1.388-1.386A27.321,27.321,0,0,0,23.9,9.927c0-.011,0-.021,0-.032a26.37,26.37,0,0,0-.406-5.448v0A1.977,1.977,0,0,0,22.1,3.054c-1.432-.391-7.074-.514-9.138-.529a70.643,70.643,0,0,0-9.139.509,2.032,2.032,0,0,0-1.39,1.407ZM24.469,15.577h0ZM10.38,13.97v-8.2l7.09,4.1Zm0,0" transform="translate(0.002 -0.5)" fill="#fff"/></svg>